<?xml version="1.0" encoding="UTF-8"?>
<svg id="Layer_1" xmlns="http://www.w3.org/2000/svg" version="1.1" viewBox="0 0 576 468">
  <!-- Generator: Adobe Illustrator 29.1.0, SVG Export Plug-In . SVG Version: 2.1.0 Build 142)  -->
  <defs>
    <style>
      .st0 {
        fill: #f05a2b;
      }

      .st1 {
        fill: #231f20;
      }

      .st2 {
        fill: #be1e2d;
      }

      .st3 {
        fill: #f05a28;
      }
    </style>
  </defs>
  <path class="st0" d="M40.4,67.5c0-1.6-.5-3.2-1.9-4.2,0,0-.2,0-.2.1,0,.4,0,.8-.1,1.1-.1.4-.3.8-.5,1,0,0,0,0-.1,0-.5-.1-.9-.2-1.4-.4-.2,0-.3-.1-.5-.2-1.2-.7-2.4-1.5-3.2-2.6-.9-1.3-1.7-2.6-2.5-4,0,0,0,0-.1,0l-9.5,1.7c0,0-.1,0-.1.2.3,1.1.8,2.1,1.3,3,.2.4.8.5,1.2.6.8.3,1.6.9,1.7,1.8.1.8,0,1.6.5,2.3.5.7,1.1,1.3,1.9,1.8,1,.6,2.6.3,3.2.7.6.4,1.3,1.9,1.5,2.3,0,0,0,0,.2,0,.5-.1,2.3-.5,3.4.1.2.1.7.4.8.6,0,0,.1,0,.2,0,.3-.3,1.6-1.3,1.8-1.5.2-.1.4-.3.5-.5-.4-.2-1-.2-1.5-.2,0,0-.9-.1-1,0,0,0,.4-.7.4-.7,0,0-.2,0-.3,0-.4,0-.9,0-1.3,0,0,0,0,0-.1,0,0,0-.5-1-.5-1-.1-.3-.2-.6-.3-.8-.1-.4-.2-.7-.4-1.1-.2-.4-.6-.5-1-.7-.3-.2-.6-.3-.9-.5-.4-.2-.7-.4-1.1-.6-.1,0,0-.3,0-.3,1.3,0,2.5.1,3.8.4,0,0,.2,0,.2,0,.1,0,.1.2.2.3.2.5.4.9.6,1.4.1.3.2.6.4.9,0,.2.2.6.3.8,0,0,0,0,.1,0,.5.1,1,.2,1.5.3.4,0,.3.2.4.5,0,.4.9.3,1.2.4,0,0,0,0,.1,0,.4-.4.6-.6.7-.7s0,0,0,0c0-.3.1-1.6,0-2.2h0Z"/>
  <path class="st3" d="M65,68.2l8,4.9c0,0,0,.1,0,.2-2.4,3.2-6.2,5.2-9.9,6.2-2.4.6-5,1.1-7.4.7-2.8-.4-5.3-1.4-6.7-3.8-1.2-2.1-1.8-5.3-1.3-7.8s2.2-5.1,4.5-6.1c.6-.2,1.7-.4,2.3-.4,3.4-.3,7.3,2.3,5.8,6-.6,1.6-3.1,2.1-4.8,1.7-.1,0-.1-.2,0-.3,1.4-.5,2.3-1,2.3-2,0-.8-.2-1.4-1.1-1.7-1.6-.5-3.6,0-4.4,1.6-.7,1.4-.7,3.1-.3,4.6.5,1.5,1.5,2.4,3.1,2.3,3.3-.2,6-1.9,8.2-4.3.1-.1,1.3-1.5,1.5-1.9,0,0,.1,0,.2,0h0Z"/>
  <path class="st2" d="M35.6,74.6s0,0,0,0c-.2-.2-.8-.7-1.7-.9-.5,0-2.1-.2-1.8.7.3.9.5,1.8.6,2.8,0,1.6-.3,3-.6,3.8,0,.1,0,.2.2.2.5-.2,1.2-.5,1.8-1s1.1-1.2,1.3-1.6c.2-.5.2-1,0-1.5-.2-.4-.5-.6-.2-1.1.2-.3.8-.8.6-1.2h0Z"/>
  <path class="st2" d="M22.2,68.3s0,0,0,0c0-.3.4-.5.6-.8.6-1,.2-1.8-.4-2.4-.7-.7-2.2-.8-3.1-.3-1.4.7-1.3,2.3-.9,3.6.2.7.6,1.7,1.3,2.7.7,1.1,1.2,1.4,1.7,2.2.4.7.8,1.8.7,3.4,0,0,0,.2.2.1.3-.1.7-.3,1.1-.8.3-.4.3-.9.5-1.3,0-.1,1.4,1.5,1.5,1.7.6.8,1,1.7,1.4,2.6.2.4.4.9.5,1.3.1.3.2.6.4.8.3-.3.4-.9.4-1.3,0-.5,0-.9,0-1.4,0-1.5-.5-2.6-.8-3.3-.2-.6-.6-1.5-1.4-2.5-.4-.4-.8-.8-1.3-1.1-.4-.3-.9-.5-1.2-.8-.3-.4-.5-.8-.7-1.2-.1-.4-.4-.8-.4-1.2h0Z"/>
  <path class="st1" d="M27.3,64.7c.9-.8.5,1.7,2.3,2,.9.2,1.1.8.3,1.3-1,.6-2.3.4-3-.7-.5-.9-.4-2,.4-2.7h0Z"/>
  <path class="st0" d="M32.2,42.9l-7.4-6.7c0,0-.2,0-.2,0-.8,1.2-1.5,2.4-2.1,3.7,0,0,0,0,0,.1l3,7.9c0,0,0,.1,0,.1-2,1.8-3.9,3.5-5.9,5.3,0,0,0,0,0,.1,0,1,0,2,.2,3,0,0,0,.1.1.1l9.8-1.1c0,0,.1,0,.1-.1,0-.7-.1-1.4-.1-2.2,0-3.7.9-7.2,2.6-10.2,0,0,0-.1,0-.2h0Z"/>
  <path class="st0" d="M44.8,23c-1.4.2-2.8.6-4.1,1,0,0,0,0,0,0l-2.9,6.7s0,0-.1,0c-2.7.3-5.7.2-8.5.2,0,0,0,0,0,0-.7.7-1.4,1.4-2.1,2.2,0,0,0,.1,0,.2l6.9,7.4c0,0,.2,0,.2,0,3.1-3.9,7.6-6.7,12.7-7.7,0,0,.1,0,.1-.2l-1.8-9.9c0,0,0-.1-.2-.1h0Z"/>
  <path class="st0" d="M64.6,26.2l-9.1,2.1c0,0-.1,0-.1,0-1.4-2-2.2-3.3-3.6-5.7,0,0,0,0-.1,0-.5,0-1.1,0-1.6,0s-1.1,0-1.6,0c0,0-.1,0-.1.1l1,10c.2,0,.3,0,.5,0,4.9,0,9.4,1.7,13,4.4,0,0,.2,0,.2,0l5.1-8.5c0,0,0-.1,0-.2-1.1-.8-2.2-1.5-3.3-2.1,0,0,0,0,0,0h0Z"/>
  <path class="st0" d="M72.2,41c0-2.8.5-5.3.7-8.2,0,0,0,0,0-.1-.6-.7-1.2-1.3-1.9-2,0,0-.2,0-.2,0l-5.2,8.7s0,.1,0,.2c2.6,2.9,4.5,6.5,5.2,10.5,0,0,0,.1.2.1l9.1-2.3c0,0,.1,0,.1-.2-.2-1.2-.5-2.4-.8-3.5,0,0,0,0,0,0l-7-3.1c0,0,0,0,0-.1h0Z"/>
  <path class="st0" d="M74.2,59c2.1-1.9,4.2-3.3,6.4-5.2,0,0,0,0,0-.1,0-.2,0-.5,0-.7,0-.5,0-1.1,0-1.6,0,0,0-.1-.2-.1l-9.4,1.3c0,.1,0,.3,0,.4,0,4.6-1.5,8.9-3.9,12.3,0,0,0,.1,0,.2l7.9,4.8c0,0,.1,0,.2,0,.8-1.2,1.5-2.4,2.2-3.7,0,0,0,0,0-.1l-3.3-7.4c0,0,0-.1,0-.2h0Z"/>
  <path class="st2" d="M17.5,53.1c2.4-3,3-3.8,5.5-6.9l-2.6-6.9c0,0-.1-.1-.2,0-1,.9-2.9,2.4-5.6,3.2-3.3,1-4.7-.4-6.1-2.1,0,0-.2,0-.2,0-.3,1.1-1.3,5.5.2,7.8.6.9,1.5,1.8,2.7,2.7,1.5,1,3.6,1.8,6.4,2.2h0Z"/>
  <path class="st2" d="M27.5,29.5c3,0,6,0,8.8-.2,0,0,0,0,.1,0l2.9-6.8c0,0,0-.2-.1-.2-1.4-.1-3.6-.7-6.1-2.1-3-1.6-2.7-3.7-2.3-6.1,0-.1,0-.2-.2-.1-1.1.4-5.4,2.5-5.8,5.8-.1,1.1-.3,2.4,0,3.8.3,1.7,1.1,3.7,2.6,5.9,0,0,0,0,.1,0h0Z"/>
  <path class="st2" d="M52.2,20.3c1.5,2.5,2.3,3.8,3.7,5.9,0,0,0,0,.1,0l9.3-2.2c0,0,.1-.1,0-.2-.8-1.1-1.8-2.8-2.5-5.6-.8-3.3.9-4.7,3-6,0,0,0-.2,0-.2-1-.4-4.9-1.9-8.2-.3-1,.5-2,1.3-2.9,2.5-1.1,1.4-2,3.3-2.7,5.9,0,0,0,0,0,.1h0Z"/>
  <path class="st2" d="M74.7,31.2c-.2,3-.6,5.5-.7,8.5,0,0,0,.1,0,.1l7.2,3.2c0,0,.2,0,.2-.1.2-1.4.7-3.3,2.3-5.7,1.9-2.9,4.1-2.6,6.4-2,.1,0,.2,0,.2-.2-.3-1.1-2-5.6-5.5-6.1-1.1-.2-2.3-.5-3.8-.3-1.7.2-4,1.2-6.3,2.6,0,0,0,0,0,.1h0Z"/>
  <path class="st2" d="M82.6,54.2c-2.3,1.9-4.4,3.4-6.6,5.3,0,0,0,.1,0,.2l3.4,7.6c0,0,.1.1.2,0,1.1-.8,2.2-2,5-2.5,3.4-.6,4.7,1.1,5.9,3.2,0,0,.2,0,.2,0,.5-1,2.6-5.3.6-8.2-.6-.9-1.3-2-2.4-3-1.3-1.1-3.6-2-6.2-2.8,0,0,0,0-.1,0h0Z"/>
</svg>